<?xml version="1.0"?>
<svg xmlns="http://www.w3.org/2000/svg" version="1.1" width="600px" height="600px" viewBox="0 0 200 200" style="overflow:hidden!important;">
  <defs id="SvgjsDefs6149">
    <radialGradient id="SvgjsRadialGradient6215" cx="100" cy="114" r="41" gradientUnits="userSpaceOnUse" class="svga-on-canvas-facehighlight-gradient-single-0">
      <stop id="SvgjsStop6216" stop-opacity="0.5" stop-color="#dcbaa4" offset="0"/>
      <stop id="SvgjsStop6217" stop-opacity="0" stop-color="#cda184" offset="0.9"/>
    </radialGradient>
    <radialGradient id="SvgjsRadialGradient6219" cx="100" cy="54" r="37" gradientUnits="userSpaceOnUse" class="svga-on-canvas-facehighlight-gradient-single-1">
      <stop id="SvgjsStop6220" stop-opacity="0.5" stop-color="#dcbaa4" offset="0"/>
      <stop id="SvgjsStop6221" stop-opacity="0" stop-color="#cda184" offset="0.9"/>
    </radialGradient>
    <radialGradient id="SvgjsRadialGradient6272" cx="121.986" cy="82.496" fx="133.239" fy="82.527" r="16.003" gradientTransform="matrix(0.9998 0.0208 0.0166 -0.7998 -45.3195 145.9395)" gradientUnits="userSpaceOnUse" class="svga-on-canvas-eyesfront-gradient-left-3">
      <stop id="SvgjsStop6273" stop-opacity="1" stop-color="#be8a67" offset="0"/>
      <stop id="SvgjsStop6274" stop-opacity="0.3" stop-color="#be8a67" offset="0.7"/>
      <stop id="SvgjsStop6275" stop-opacity="0" stop-color="#cda184" offset="1"/>
    </radialGradient>
    <radialGradient id="SvgjsRadialGradient6277" cx="68.931" cy="105.995" r="29.524" gradientTransform="matrix(1.0336 0 0 1.0336 -1.6796 1.3127)" gradientUnits="userSpaceOnUse" class="svga-on-canvas-eyesfront-gradient-left-4">
      <stop id="SvgjsStop6278" stop-opacity="0" stop-color="#000000" offset="0.95"/>
      <stop id="SvgjsStop6279" stop-opacity="0.2" stop-color="#000000" offset="1"/>
    </radialGradient>
    <radialGradient id="SvgjsRadialGradient6292" cx="121.587" cy="82.496" fx="132.839" fy="82.527" r="16.003" gradientTransform="matrix(-0.9998 0.0208 -0.0166 -0.7998 244.5208 145.9478)" gradientUnits="userSpaceOnUse" class="svga-on-canvas-eyesfront-gradient-right-3">
      <stop id="SvgjsStop6293" stop-opacity="1" stop-color="#be8a67" offset="0"/>
      <stop id="SvgjsStop6294" stop-opacity="0.3" stop-color="#be8a67" offset="0.7"/>
      <stop id="SvgjsStop6295" stop-opacity="0" stop-color="#cda184" offset="1"/>
    </radialGradient>
    <radialGradient id="SvgjsRadialGradient6297" cx="69.316" cy="105.995" r="29.524" gradientTransform="matrix(-1.0336 0 0 1.0336 201.6796 1.3127)" gradientUnits="userSpaceOnUse" class="svga-on-canvas-eyesfront-gradient-right-4">
      <stop id="SvgjsStop6298" stop-opacity="0" stop-color="#000000" offset="0.95"/>
      <stop id="SvgjsStop6299" stop-opacity="0.2" stop-color="#000000" offset="1"/>
    </radialGradient>
    <radialGradient id="SvgjsRadialGradient6304" cx="-568.659" cy="-521.042" r="59.751" gradientTransform="matrix(0.096 -0.0248 0.0245 0.0961 141.2814 119.9893)" gradientUnits="userSpaceOnUse" class="svga-on-canvas-eyesiris-gradient-left-1">
      <stop id="SvgjsStop6305" stop-opacity="1" stop-color="#ffffff" offset="0"/>
      <stop id="SvgjsStop6306" stop-opacity="0" stop-color="#ffffff" offset="1"/>
    </radialGradient>
    <radialGradient id="SvgjsRadialGradient6308" cx="-582.838" cy="-519.099" r="59.745" gradientTransform="matrix(0.0991 8.856319e-004 -0.0011 0.0991 131.1134 135.9855)" gradientUnits="userSpaceOnUse" class="svga-on-canvas-eyesiris-gradient-left-2">
      <stop id="SvgjsStop6309" stop-opacity="1" stop-color="#ffffff" offset="0"/>
      <stop id="SvgjsStop6310" stop-opacity="0" stop-color="#ffffff" offset="1"/>
    </radialGradient>
    <linearGradient id="SvgjsLinearGradient6314" x1="122.67" y1="88.268" x2="123.606" y2="87.152" gradientTransform="matrix(1 0 0 1 -52 0)" gradientUnits="userSpaceOnUse" class="svga-on-canvas-eyesiris-gradient-left-5">
      <stop id="SvgjsStop6315" stop-opacity="1" stop-color="#ffffff" offset="0"/>
      <stop id="SvgjsStop6316" stop-opacity="0" stop-color="#ffffff" offset="1"/>
    </linearGradient>
    <linearGradient id="SvgjsLinearGradient6318" x1="127.212" y1="82.296" x2="126.463" y2="83.189" gradientTransform="matrix(1 0 0 1 -52 0)" gradientUnits="userSpaceOnUse" class="svga-on-canvas-eyesiris-gradient-left-6">
      <stop id="SvgjsStop6319" stop-opacity="1" stop-color="#ffffff" offset="0"/>
      <stop id="SvgjsStop6320" stop-opacity="0" stop-color="#ffffff" offset="1"/>
    </linearGradient>
    <linearGradient id="SvgjsLinearGradient6322" x1="129.636" y1="79.822" x2="127.91" y2="81.879" gradientTransform="matrix(1 0 0 1 -52 0)" gradientUnits="userSpaceOnUse" class="svga-on-canvas-eyesiris-gradient-left-7">
      <stop id="SvgjsStop6323" stop-opacity="1" stop-color="#ffffff" offset="0"/>
      <stop id="SvgjsStop6324" stop-opacity="0" stop-color="#ffffff" offset="1"/>
    </linearGradient>
    <radialGradient id="SvgjsRadialGradient6327" cx="-568.654" cy="-521.042" r="59.752" gradientTransform="matrix(0.096 -0.0248 0.0245 0.0961 193.2804 119.9894)" gradientUnits="userSpaceOnUse" class="svga-on-canvas-eyesiris-gradient-right-1">
      <stop id="SvgjsStop6328" stop-opacity="1" stop-color="#ffffff" offset="0"/>
      <stop id="SvgjsStop6329" stop-opacity="0" stop-color="#ffffff" offset="1"/>
    </radialGradient>
    <radialGradient id="SvgjsRadialGradient6331" cx="-582.833" cy="-519.102" r="59.747" gradientTransform="matrix(0.0991 8.856319e-004 -0.0011 0.0991 183.1126 135.9856)" gradientUnits="userSpaceOnUse" class="svga-on-canvas-eyesiris-gradient-right-2">
      <stop id="SvgjsStop6332" stop-opacity="1" stop-color="#ffffff" offset="0"/>
      <stop id="SvgjsStop6333" stop-opacity="0" stop-color="#ffffff" offset="1"/>
    </radialGradient>
    <linearGradient id="SvgjsLinearGradient6337" x1="122.67" y1="88.268" x2="123.606" y2="87.152" gradientUnits="userSpaceOnUse" class="svga-on-canvas-eyesiris-gradient-right-5">
      <stop id="SvgjsStop6338" stop-opacity="1" stop-color="#ffffff" offset="0"/>
      <stop id="SvgjsStop6339" stop-opacity="0" stop-color="#ffffff" offset="1"/>
    </linearGradient>
    <linearGradient id="SvgjsLinearGradient6341" x1="127.212" y1="82.296" x2="126.463" y2="83.189" gradientUnits="userSpaceOnUse" class="svga-on-canvas-eyesiris-gradient-right-6">
      <stop id="SvgjsStop6342" stop-opacity="1" stop-color="#ffffff" offset="0"/>
      <stop id="SvgjsStop6343" stop-opacity="0" stop-color="#ffffff" offset="1"/>
    </linearGradient>
    <linearGradient id="SvgjsLinearGradient6345" x1="129.636" y1="79.822" x2="127.91" y2="81.879" gradientUnits="userSpaceOnUse" class="svga-on-canvas-eyesiris-gradient-right-7">
      <stop id="SvgjsStop6346" stop-opacity="1" stop-color="#ffffff" offset="0"/>
      <stop id="SvgjsStop6347" stop-opacity="0" stop-color="#ffffff" offset="1"/>
    </linearGradient>
    <linearGradient id="SvgjsLinearGradient6353" x1="100" y1="142" x2="100" y2="139" gradientUnits="userSpaceOnUse" class="svga-on-canvas-mouth-gradient-single-0">
      <stop id="SvgjsStop6354" stop-opacity="1" stop-color="#c59575" offset="0.1"/>
      <stop id="SvgjsStop6355" stop-opacity="1" stop-color="#be8a67" offset="1"/>
    </linearGradient>
    <radialGradient id="SvgjsRadialGradient6406" cx="125.2" cy="85" r="13" gradientTransform="matrix(-1 0 0 1 200 0)" gradientUnits="userSpaceOnUse" class="svga-on-canvas-eyesback-gradient-left-0">
      <stop id="SvgjsStop6407" stop-opacity="1" stop-color="#ffffff" offset="0"/>
      <stop id="SvgjsStop6408" stop-opacity="1" stop-color="#fdfefe" offset="0.544"/>
      <stop id="SvgjsStop6409" stop-opacity="1" stop-color="#f6f8f9" offset="0.74"/>
      <stop id="SvgjsStop6410" stop-opacity="1" stop-color="#eaeff2" offset="0.879"/>
      <stop id="SvgjsStop6411" stop-opacity="1" stop-color="#d9e3e8" offset="0.992"/>
      <stop id="SvgjsStop6412" stop-opacity="1" stop-color="#d8e2e7" offset="1"/>
    </radialGradient>
    <radialGradient id="SvgjsRadialGradient6414" cx="124.801" cy="85" r="13" gradientUnits="userSpaceOnUse" class="svga-on-canvas-eyesback-gradient-right-0">
      <stop id="SvgjsStop6415" stop-opacity="1" stop-color="#ffffff" offset="0"/>
      <stop id="SvgjsStop6416" stop-opacity="1" stop-color="#fdfefe" offset="0.544"/>
      <stop id="SvgjsStop6417" stop-opacity="1" stop-color="#f6f8f9" offset="0.74"/>
      <stop id="SvgjsStop6418" stop-opacity="1" stop-color="#eaeff2" offset="0.879"/>
      <stop id="SvgjsStop6419" stop-opacity="1" stop-color="#d9e3e8" offset="0.992"/>
      <stop id="SvgjsStop6420" stop-opacity="1" stop-color="#d8e2e7" offset="1"/>
    </radialGradient>
    <radialGradient id="SvgjsRadialGradient6422" cx="125.2" cy="85" r="13" gradientTransform="matrix(-1 0 0 1 200 0)" gradientUnits="userSpaceOnUse" class="svga-on-canvas-eyesfront-gradient-left-0">
      <stop id="SvgjsStop6423" stop-opacity="1" stop-color="#ffffff" offset="0"/>
      <stop id="SvgjsStop6424" stop-opacity="1" stop-color="#fdfefe" offset="0.544"/>
      <stop id="SvgjsStop6425" stop-opacity="1" stop-color="#f6f8f9" offset="0.74"/>
      <stop id="SvgjsStop6426" stop-opacity="1" stop-color="#eaeff2" offset="0.879"/>
      <stop id="SvgjsStop6427" stop-opacity="1" stop-color="#d9e3e8" offset="0.992"/>
      <stop id="SvgjsStop6428" stop-opacity="1" stop-color="#d8e2e7" offset="1"/>
    </radialGradient>
    <radialGradient id="SvgjsRadialGradient6433" cx="124.801" cy="85" r="13" gradientUnits="userSpaceOnUse" class="svga-on-canvas-eyesfront-gradient-right-0">
      <stop id="SvgjsStop6434" stop-opacity="1" stop-color="#ffffff" offset="0"/>
      <stop id="SvgjsStop6435" stop-opacity="1" stop-color="#fdfefe" offset="0.544"/>
      <stop id="SvgjsStop6436" stop-opacity="1" stop-color="#f6f8f9" offset="0.74"/>
      <stop id="SvgjsStop6437" stop-opacity="1" stop-color="#eaeff2" offset="0.879"/>
      <stop id="SvgjsStop6438" stop-opacity="1" stop-color="#d9e3e8" offset="0.992"/>
      <stop id="SvgjsStop6439" stop-opacity="1" stop-color="#d8e2e7" offset="1"/>
    </radialGradient>
    <linearGradient id="SvgjsLinearGradient6460" x1="130" y1="77" x2="130" y2="98" gradientUnits="userSpaceOnUse" class="svga-on-canvas-glasses-gradient-single-0">
      <stop id="SvgjsStop6461" stop-opacity="1" stop-color="#26120b" offset="0"/>
      <stop id="SvgjsStop6462" stop-opacity="0.5" stop-color="#26120b" offset="1"/>
    </linearGradient>
    <linearGradient id="SvgjsLinearGradient6464" x1="130" y1="77" x2="130" y2="98" gradientTransform="matrix(-1 0 0 1 200 0)" gradientUnits="userSpaceOnUse" class="svga-on-canvas-glasses-gradient-single-1">
      <stop id="SvgjsStop6465" stop-opacity="1" stop-color="#26120b" offset="0"/>
      <stop id="SvgjsStop6466" stop-opacity="0.5" stop-color="#26120b" offset="1"/>
    </linearGradient>
    <linearGradient id="SvgjsLinearGradient6496" x1="100" y1="170" x2="100" y2="132" gradientUnits="userSpaceOnUse" class="svga-on-canvas-chinshadow-gradient-single-0">
      <stop id="SvgjsStop6497" stop-opacity="0.8" stop-color="#be8a67" offset="0"/>
      <stop id="SvgjsStop6498" stop-opacity="1" stop-color="#9f6037" offset="0.7"/>
    </linearGradient>
  </defs>
  <g id="svga-group-wrapper">
    <g id="svga-group-backs-single">
      <path id="SvgjsPath6369" d="M225 225H-25V-25h250V225z" fill="#14305c" stroke-width="none" opacity="1" stroke="none"/>
    </g>
    <g id="svga-group-humanwrap-move" transform="matrix(1,0,0,1,0,0)">
      <g id="svga-group-humanwrap" transform="matrix(1,0,0,1,0,0)">
        <g id="svga-group-hair-back-move" transform="matrix(1,0,0,1,0,0)">
          <g id="svga-group-hair-back" transform="matrix(1,0,0,1,0,0)">
            <path id="SvgjsPath6381" d="M100.5,100.5h-1v-1h1V100.5z" fill="#b79675" stroke-width="none" opacity="1" stroke="none"/>
          </g>
        </g>
        <g id="svga-group-humanbody-single">
          <path id="SvgjsPath6222" d="M195.417 199.778c-2.196-4.746-8.195-11.779-14.86-13.722 -8.239-2.403-26.837-5.308-33.733-6.923 -5.528-1.296-16.662-11.294-20.564-14.65 -0.7-0.6-1.273-1.839-1.287-2.76 -0.139-10.864 4.195-39.724 4.195-39.724H100 70.833c0 0 4.334 28.859 4.193 39.724 -0.011 0.921-0.587 2.16-1.285 2.76 -3.902 3.356-15.036 13.354-20.564 14.65 -6.897 1.615-25.495 4.619-33.733 7.022 -6.667 1.942-12.664 8.876-14.86 13.622 -3.708 8.008-4.584 22.5-4.584 35h100 100C200 222.278 199.123 207.786 195.417 199.778z" fill="#cda184" stroke-width="none" opacity="1" stroke="none"/>
          <path id="SvgjsPath6223" d="M159.156 184.058c24.342 3.542 34.586 8.708 37.794 50.721H200c0-12.5-0.877-26.992-4.583-35 -2.196-4.746-8.195-11.779-14.86-13.722 -8.239-2.403-26.837-5.308-33.733-6.923 -5.528-1.296-18.242-12.069-21.643-16.35 3.36 4.704 12.791 15.605 21.054 18.46C150.188 182.61 153.48 183.232 159.156 184.058zM53.766 181.244c8.263-2.854 17.693-13.756 21.054-18.46 -3.4 4.28-16.114 15.054-21.643 16.35 -6.896 1.615-25.494 4.619-33.733 7.022 -6.665 1.942-12.664 8.876-14.86 13.622 -3.706 8.008-4.583 22.5-4.583 35h3.05c3.188-41.744 13.475-47.183 37.794-50.721C46.52 183.232 49.813 182.61 53.766 181.244z" fill="#dcbaa4" stroke-width="none" opacity="1" stroke="none"/>
          <path id="SvgjsPath6224" d="M95.646 197.62c0 0-5.074-1.609-7.083-2.379 -10.449-4.009-44.395-6.607-44.395-6.607s35.754 1.419 43.644 2.779c-0.458-4.767-3.017-20.004-3.017-20.004s5.149 16.815 6.409 21.057C91.878 194.734 95.646 197.62 95.646 197.62zM106.445 196.278c-0.089 0.073-0.191 0.168-0.302 0.268C106.256 196.461 106.358 196.372 106.445 196.278zM95.646 197.62c0 0 2.893 2.992 4.347 3.03 1.91 0.051 4.828-2.899 6.151-4.104 -1.265 0.957-4.159 1.391-5.31 1.436C99.504 198.033 95.646 197.62 95.646 197.62zM116.664 190.101c-1.545 0.248-4.386 0.789-4.386 0.789l2.287-14.89c-0.646 3.071-4.474 16.211-8.12 20.278 1.91-1.616 6.158-2.391 8.324-2.704 10.236-1.484 10.232-1.483 41.062-4.94C155.831 188.634 126.76 188.479 116.664 190.101z" fill="#be8a67" stroke-width="none" opacity="1" stroke="none"/>
          <path id="SvgjsPath6225" d="M195.417 199.778c-2.196-4.746-8.195-11.779-14.86-13.722 -8.239-2.403-26.837-5.308-33.733-6.923 -5.528-1.296-16.662-11.294-20.564-14.65 -0.7-0.6-1.273-1.839-1.287-2.76 -0.139-10.864 4.195-39.724 4.195-39.724H100 70.833c0 0 4.334 28.859 4.193 39.724 -0.011 0.921-0.587 2.16-1.285 2.76 -3.902 3.356-15.036 13.354-20.564 14.65 -6.897 1.615-25.495 4.619-33.733 7.022 -6.667 1.942-12.664 8.876-14.86 13.622 -3.708 8.008-4.584 22.5-4.584 35h100 100C200 222.278 199.123 207.786 195.417 199.778z" fill="none" stroke="#9f6037" stroke-width="1.5" opacity="1"/>
        </g>
        <g id="svga-group-chinshadow-single">
          <path id="SvgjsPath6495" d="M103.705 170.189c5.292-1.558 13.31-7.012 20.631-12.852 0.352-6.636 1.433-15.887 2.396-23.284 -14.957-2.455-38.464-2.408-53.454 0.081 0.95 7.3 2.01 16.38 2.372 22.974 7.055 5.816 14.789 11.372 20.685 13.087C97.144 170.431 102.896 170.428 103.705 170.189z" fill="url(#SvgjsLinearGradient6496)" opacity="1"/>
        </g>
        <g id="svga-group-clothes-single">
          <path id="SvgjsPath6478" d="M151.119 179.24c-1.169 17.511 0.778 37.348 0.778 37.348 -8.557-3.703-24.938-17.078-29.373-18.164 -4.474 2.39-7.042 2.32-8.15 2.601 -6.551 1.097-16.591 2.793-24.333-1.148 -2.057 0.038-4.301 0.78-6.503 2.433 -14.313 10.724-24.088 11.687-31.542 16.842 1.802-30.226-1.067-29.88-1.743-40.21 -1.313-0.494-1.503-0.686-2.198-1.931 -11.285 3.505-33.28 6.635-44.27 17.565 -9.797 9.743-12.963 25.098-11.355 39.018 60.296-0.651 154.574-1.435 215.17-0.838C208.484 188.103 184.687 187.925 151.119 179.24z" fill="#386e77" stroke-width="none" opacity="1" stroke="none"/>
          <path id="SvgjsPath6479" d="M122.058 200.77c-2.26-0.563-4.039-0.075-5.735-0.076 1.416-0.26 3.443-0.796 6.202-2.27 3.903 0.958 20.003 13.108 28.935 18.133C141.348 213.958 130.793 203.448 122.058 200.77zM93.658 201.305c-1.216-0.361-2.424-0.823-3.617-1.429 -2.057 0.038-4.301 0.78-6.503 2.433 -11.353 8.505-23.97 13.47-30.718 16.655C86.366 209.735 80.769 201.455 93.658 201.305z" fill="#265e68" stroke-width="none" opacity="1" stroke="none"/>
          <path id="SvgjsPath6480" d="M49.185 177.937c-35.389 10.12-53.816 14.299-56.599 55.654 -0.052 0.001-0.105 0.002-0.158 0.002 -0.609-5.283-0.528-10.772 0.34-16.083 1.416-8.686 4.938-16.889 11.016-22.935 10.99-10.931 32.985-14.061 44.27-17.565C48.092 177.08 49.149 177.871 49.185 177.937zM151.119 179.24c-0.009 0.138-0.216 0.975-0.224 1.111 27.9 8.159 54.292 10.078 56.23 52.399 0.155 0.001 0.317 0.003 0.473 0.004C208.484 188.103 182.822 184.752 151.119 179.24z" fill="#4d7e86" stroke-width="none" opacity="1" stroke="none"/>
          <path id="SvgjsPath6481" d="M208.188 233.074c0 0-30.844 0.408-51.32 0.528 -13.87 0.089-27.734 0.164-41.604 0.223 -89.418 0.32-93.853-0.081-123.482-0.081 0 0-0.512-2.865-0.628-5.683 -1.741-42.366 33.358-44.661 56.99-51.536 0.296-0.086 0.613 0.04 0.769 0.306 0.404 0.69 1.153 1.216 1.216 1.248 0.01 0.362 0.032 0.714 0.055 1.078 -0.876-0.331-1.002-0.491-1.999-1.523 -0.093-0.1-0.197-0.18-0.322-0.136 -2.094 0.759-4.597 1.094-6.8 1.789 4.908 7.375 4.512 8.756 11.027 16.468 0.009 0.097 0.075 1.446 0.087 2.015 -6.347-6.477-7.729-10.213-12.204-18.152 -18.695 5.934-36.75 6.94-45.03 29.829 -2.725 7.542-3.244 16.485-2.368 24.214 65.178-0.707 149.228-1.39 214.963-0.839 -0.768-42.858-23.644-46.791-47.574-51.378 -1.633 4.021-5.957 9.634-8.979 12.803 -0.022-0.649-0.043-1.313-0.055-1.962 1.651-2.145 6.289-8.719 7.391-11.192 -2.355-0.663-4.701-0.836-7.045-1.528 0-0.312 0-0.606 0-0.905C203.73 184.932 208.188 199.237 208.188 233.074zM122.621 198.697c-0.242-0.101-0.483-0.165-0.728-0.197 -2.59 0.632-3.484 1.342-7.833 2.2 -3.443 0.681-12.983 2.123-20.4 0.233 0.039 0.108 0 0 0 0 -1.128-0.623-2.23-0.805-3.57-0.773C98.597 204.991 116.228 201.534 122.621 198.697zM134.848 206.507c-0.298-0.211-0.584-0.419-0.869-0.641 -19.135 9.753-37.45 9.533-56.787 5.223 -1.223-0.318-2.434-0.674-3.635-1.047 -0.374 0.198-0.759 0.398-1.157 0.571C92.217 218.667 116.646 217.646 134.848 206.507z" fill="#0c4049" stroke-width="none" opacity="1" stroke="none"/>
          <path id="SvgjsPath6482" d="M52.045 219.328c1.863-31.071-2.873-33.865-1.708-46.65 3.715-2.175 7.4-2.84 9.259-5.004 8.871-10.374 7.834-14.805 13.599-17.518 1.146 4.797 1.841 16.058 1.848 16.205 4.352 12.899 7.315 18.411 10.881 23.596 2.071 3.004 6.493 7.614 7.551 10.751 -2.126-1.067-5.81-1.07-9.892 1.774 -6.618 4.571-4.228 5.659-18.017 10.661C60.675 214.903 56.454 217.294 52.045 219.328zM150.818 192.144c-0.004-0.317 0.354-16.318 0.396-17.648 -7.095-2.599-14.646-22.281-24.338-23.615 -2.861 17.897 0.537 11.463-7.986 33.135 -2.105 5.354-2.9 7.377-3.289 16.253 0.218-0.057 0.595-0.158 0.614-0.158l0 0c2.938-0.774 3.918-1.239 5.703-1.721 0.912 0.188 2.43 0.969 2.712 1.193l-0.008-0.012c8.231 4.395 15.909 12.32 27.32 17.195C152.173 212.465 150.818 201.795 150.818 192.144z" fill="#ffffff" stroke-width="none" opacity="1"/>
          <path id="SvgjsPath6483" d="M117.407 199.781c-0.363 0.104-0.75 0.211-1.192 0.328 -0.02 0-0.396 0.102-0.614 0.158 0.389-8.876 1.184-10.899 3.289-16.253 8.523-21.672 5.125-15.237 7.986-33.135 1.941 0.266 3.798 1.415 5.582 3.085 -1.227 9.5-3.84 17-7.646 25.567 4.461-2.522 9.298-5.611 13.672-8.026C129.391 179.69 120.304 187.877 117.407 199.781zM93.475 200.708c-1.059-3.137-5.48-7.747-7.551-10.751 -3.566-5.185-6.529-10.696-10.881-23.596 -0.007-0.147-0.702-11.408-1.848-16.205 -3.646 1.714-3.34 2.955-5.771 7.11 1.958 10.127 5.915 16.565 11.527 24.985 -4.784-3.154-11.462-8.545-18.071-11.847 11.134 8.348 19.139 19.045 26.653 30.108C89.972 199.77 92.066 200.003 93.475 200.708z" fill="#dedbd4" stroke-width="none" opacity="1"/>
          <path id="SvgjsPath6484" d="M86.015 189.896c-5.437-7.907-7.91-15.09-10.862-23.54 0 0-0.482-11.635-1.662-16.356 -5.941 2.726-5.056 6.065-13.979 16.499 -2.523 2.937-5.948 4.17-9.286 6.17 -0.856 9.399 1.783 16.584 1.95 25.104 0.238 6.276 0.213 14.08-0.253 21.732 4.45-2.042 8.725-4.477 13.68-6.258 13.805-5.006 11.434-6.111 18.043-10.674 4.265-2.973 8.018-2.779 10.014-1.64C92.757 197.76 88.146 192.987 86.015 189.896zM70.813 209.965c-8.755 3.447-6.354 1.844-18.373 8.736 3.358-23.819-1.74-34.836-1.74-45.571 3.458-1.789 6.78-2.763 9.33-5.682 9.546-10.978 7.557-13.666 12.843-16.896 0.331 3.15 0.595 6.323 0.761 9.506 0.563 11.263-0.939 3.57 3.492 15.177 6.549 17.153 12.799 18.935 15.762 24.862C84.479 196.433 78.493 207.405 70.813 209.965zM150.93 192.142c-0.006-0.438 0.389-17.628 0.397-17.721 -7.108-2.46-15.008-22.473-24.872-23.66 -0.834 5.126-1.819 16.224-1.819 16.224 -6.725 22.526-8.516 18.624-9.153 33.432 0.003 0 0.713-0.197 0.76-0.2 2.804-0.74 3.87-1.207 5.651-1.716 0.281 0.055 0.739 0.195 1.013 0.316 0.038 0.02 1.7 0.839 1.664 0.851 8.283 4.426 15.938 12.374 27.474 17.26C152.314 212.718 150.93 201.899 150.93 192.142zM144.088 211.398c-7.721-4.629-13.066-10.239-21.258-13.583 -2.219-0.936-5.073 0.968-7.025 2.402 1.077-9.418 0.707-7.281 2.708-12.69 9.219-25.037 6.64-10.866 8.801-36.229 8.454 2.822 16.191 20.952 23.12 23.187 -2.226 26.343 0.761 35.685 1.113 41.66C148.972 214.759 146.59 212.896 144.088 211.398z" fill="#afa9a0" stroke-width="none" opacity="1"/>
        </g>
        <g id="svga-group-head" transform="matrix(1,0,0,1,0,0)">
          <g id="svga-group-ears-left-move" transform="matrix(1,0,0,1,0,0)">
            <g id="svga-group-ears-left" transform="matrix(1,0,0,1,0,0)">
              <path id="SvgjsPath6473" d="M47.218 81.505c-0.967-2.487-8.082-6.002-11.21-5.447 -3.538 0.627-4.838 4.356-4.369 7.119 1.103 6.487 3.996 9.219 5.296 14.286 1.096 4.273 3.433 6.732 4.588 8.548 1.42 2.228 2.73 7.341 3.023 8.087 0.463 1.18 2.103 4.043 5.002 3.896 3.333-0.172 7.545-6.688 7.614-8.135C57.544 102.009 49.733 87.979 47.218 81.505z" fill="#cda184" stroke="#9f6037" stroke-width="1.5" opacity="1"/>
              <path id="SvgjsPath6474" d="M47.953 107.96c0 0 0.429-1.071-0.094-2.022 -0.672-1.223-2.423-3.468-2.821-4.811 -0.325-1.098-0.16-3.445-0.213-4.593 -0.094-2.03-1.492-3.42-1.927-4.585 -2.914-7.793-6.792-12.623-9-13.626 -1.633 3.989-0.339 6.907 1.94 13.045 -1.375-8.342-0.054-10.95-0.054-10.95s4.018 3.465 6.001 11.172c0.359 1.391-1.111 4.294-0.83 5.705 0.352 1.772 4.184 5.201 5.257 6.635C47.049 105.047 47.953 107.96 47.953 107.96z" fill="#9f6037" stroke-width="none" opacity="1" stroke="none"/>
            </g>
          </g>
          <g id="svga-group-ears-right-move" transform="matrix(1,0,0,1,0,0)">
            <g id="svga-group-ears-right" transform="matrix(1,0,0,1,0,0)">
              <path id="SvgjsPath6475" d="M152.52 81.505c0.967-2.487 8.082-6.002 11.211-5.447 3.539 0.627 4.838 4.356 4.369 7.119 -1.104 6.487-3.996 9.219-5.297 14.286 -1.096 4.273-3.434 6.732-4.588 8.548 -1.42 2.228-2.73 7.341-3.023 8.087 -0.463 1.18-2.104 4.043-5.002 3.896 -3.332-0.172-7.545-6.688-7.613-8.135C142.193 102.009 150.006 87.979 152.52 81.505z" fill="#cda184" stroke="#9f6037" stroke-width="1.5" opacity="1"/>
              <path id="SvgjsPath6476" d="M151.785 107.96c0 0-0.43-1.071 0.094-2.022 0.672-1.223 2.424-3.468 2.82-4.811 0.324-1.098 0.16-3.445 0.215-4.593 0.094-2.03 1.49-3.42 1.926-4.585 2.914-7.793 6.793-12.623 9-13.626 1.633 3.989 0.338 6.907-1.939 13.045 1.375-8.342 0.053-10.95 0.053-10.95s-4.018 3.465-6.002 11.172c-0.357 1.391 1.111 4.294 0.83 5.705 -0.352 1.772-4.184 5.201-5.256 6.635C152.689 105.047 151.785 107.96 151.785 107.96z" fill="#9f6037" stroke-width="none" opacity="1" stroke="none"/>
            </g>
          </g>
          <g id="svga-group-faceshape-wrap" transform="matrix(1,0,0,1,0,0)">
            <g id="svga-group-faceshape-single">
              <path id="SvgjsPath6492" d="M138.275 134.933c-7.56 7.762-25.273 22.52-34.57 25.257 -0.809 0.238-6.561 0.241-7.37 0.006 -10.402-3.025-26.524-18.002-34.545-25.284 -0.698-0.634-1.876-2.14-2.323-2.97 -6.875-12.77-18.452-54.948-18.462-54.995 -1.3-4.911-1.996-10.066-2.004-15.382C38.949 28.09 66.155 0.919 99.773 0.867c33.621-0.052 60.913 27.033 60.964 60.507 0.009 5.316-0.669 10.473-1.952 15.389 -0.015 0.047-11.729 42.121-18.293 55.052C140.06 132.667 138.942 134.247 138.275 134.933z" fill="#cda184" stroke-width="none" opacity="1" stroke="none"/>
              <path id="SvgjsPath6493" d="M122.923 5.375c19.396 9.496 32.911 30.588 32.944 55.131 0.009 5.316-0.615 10.473-1.796 15.389 -0.013 0.047-10.79 42.121-16.829 55.053 -0.398 0.852-1.426 2.432-2.039 3.117 -6.955 7.762-23.252 22.52-31.805 25.258 -0.744 0.238-6.036 0.24-6.781 0.006 -9.57-3.025-24.402-18.002-31.782-25.285 -0.642-0.633-1.726-2.139-2.137-2.969 -6.325-12.77-16.976-54.948-16.985-54.996 -1.196-4.911-1.836-10.066-1.844-15.382C43.835 36.099 57.351 14.919 76.79 5.389c-22.202 9.066-37.828 30.804-37.789 56.176 0.008 5.316 0.704 10.471 2.004 15.382 0.01 0.047 11.587 42.226 18.462 54.995 0.447 0.83 1.625 2.336 2.323 2.97 8.021 7.282 24.144 22.259 34.545 25.284 0.809 0.235 6.562 0.232 7.37-0.006 9.297-2.737 27.011-17.495 34.57-25.257 0.667-0.686 1.784-2.266 2.217-3.118 6.564-12.932 18.278-55.005 18.293-55.052 1.283-4.916 1.961-10.072 1.952-15.389C160.699 36.059 145.075 14.408 122.923 5.375z" fill="#c59575" stroke-width="none" opacity="1" stroke="none"/>
              <path id="SvgjsPath6494" d="M138.275 134.933c-7.56 7.762-25.273 22.52-34.57 25.257 -0.809 0.238-6.561 0.241-7.37 0.006 -10.402-3.025-26.524-18.002-34.545-25.284 -0.698-0.634-1.876-2.14-2.323-2.97 -6.875-12.77-18.452-54.948-18.462-54.995 -1.3-4.911-1.996-10.066-2.004-15.382C38.949 28.09 66.155 0.919 99.773 0.867c33.621-0.052 60.913 27.033 60.964 60.507 0.009 5.316-0.669 10.473-1.952 15.389 -0.015 0.047-11.729 42.121-18.293 55.052C140.06 132.667 138.942 134.247 138.275 134.933z" fill="none" stroke="#9f6037" stroke-width="1.5" opacity="1"/>
            </g>
          </g>
          <g id="svga-group-mouth-single-move" transform="matrix(1,0,0,1,0,0)">
            <g id="svga-group-mouth-single" transform="matrix(1,0,0,1,0,0)">
              <path id="SvgjsPath6469" d="M100.34 141.925c-1.526 0-2.998-0.193-3.9-0.547 -0.257-0.102-0.384-0.392-0.283-0.648 0.101-0.257 0.39-0.383 0.648-0.283 1.664 0.653 5.855 0.676 7.704-0.193 0.251-0.117 0.548-0.01 0.665 0.239 0.118 0.25 0.011 0.548-0.239 0.665C103.815 141.684 102.044 141.925 100.34 141.925zM115.025 133.444c0.398-0.171 0.584-0.632 0.413-1.031s-0.635-0.583-1.031-0.413c-11.666 4.992-28.742 0.338-28.912 0.292 -0.417-0.116-0.852 0.127-0.968 0.546 -0.116 0.418 0.128 0.851 0.546 0.968 0.463 0.128 7.692 2.1 16.034 2.1C105.727 135.905 110.685 135.301 115.025 133.444z" fill="#9f6037" stroke-width="none" opacity="1" stroke="none"/>
            </g>
          </g>
          <g id="svga-group-eyes-left-move" transform="matrix(1,0,0,1,0,0)">
            <g id="svga-group-eyes-left" transform="matrix(1,0,0,1,0,0)">
              <g id="svga-group-eyesback-left">
                <path id="SvgjsPath6405" d="M74.8 71.999c7.18 0 13 5.82 13 13 0 7.18-5.82 13-13 13s-13-5.82-13-13C61.8 77.819 67.62 71.999 74.8 71.999z" fill="url(#SvgjsRadialGradient6406)" opacity="1"/>
              </g>
              <g id="svga-group-eyesiriswrapper-left" transform="matrix(1,0,0,1,1,1)">
                <g id="svga-group-eyesiriscontrol-left" transform="matrix(1,0,0,1,0,0)">
                  <g id="svga-group-eyesiris-left" transform="matrix(1,0,0,1,0,0)">
                    <path id="SvgjsPath6443" d="M80 84c0 3.313-2.687 5.999-6 5.999S68 87.313 68 84c0-3.316 2.687-6.001 6-6.001S80 80.685 80 84z" fill="#8ab42d" stroke-width="none" opacity="1" stroke="none"/>
                    <path id="SvgjsPath6444" d="M70.512 86.805c0.875-0.072 0.1-0.306 0.1-0.306 -0.433-0.233-1.248-0.592-1.248-0.921 0-1.031 1.414-1.299-0.034-1.705 -1.504-1.38 1.167-1.352 1.147-1.398 -0.975-2.376 0.299-1.071 0.835-1.773 1.988-2.599 0.554 0.267 1.633 0 0.391-0.096-0.78-1.531 0.034-1.33 0.539 0.132 0.662 0.58 0.662 0.58 0.393-0.077 1.008-0.682 1.008-0.682 0.749 0.226 1.275 1.29 1.043 1.091 0.368-0.045 0.884-0.221 1.286-0.341 0 0 0.07-0.239 0.139-0.033 0.917 2.661 3.284 2.47 0.559 3.24 0 0-0.176 0 0.382 0.442 2.71 2.164-2.102 1.495 0.451 2.49 0.104-0.104-1.53 0.965-1.53 1.261 0 0.501-1.042 1.818-1.946 1.3 -0.504-0.288-0.581 0.6-0.877 0.19 -0.581-0.803-1.742-0.035-1.313-0.773 0.634-0.521-0.654 0.204-0.904 0.204 -0.828 0 1.083-2.783 3.894-0.715 0.822 0.602-0.864-1.433 0.625-1.433 0.149 0.049 0.104-0.521 0.104-0.682 -0.774-0.151 1.39-0.003 1.39-1.262 0.137 0.027 0.509-0.35-1.635 0 0 0-0.068-0.75-0.034-0.886 0.11-0.438 1.214-0.298 0.904-0.75 0-0.001-0.799-1.604-0.799-1.604 -2.573-0.414-1.102-0.672-2.711-0.341 -0.076 0.378-3.445 1.984-3.338 2.729 0.1 0.702 2.115 0.938 0.208 2.182C73.405 91.051 68.437 85.454 70.512 86.805z" fill="#9cc344" stroke-width="none" opacity="1" stroke="none"/>
                    <path id="SvgjsPath6445" d="M74 78.749l0.171 4.393 1.837-3.993 -1.523 4.123 3.227-2.985 -2.985 3.226 4.124-1.523 -3.992 1.839 4.392 0.17 -4.392 0.17 3.992 1.839 -4.124-1.523 2.985 3.226 -3.227-2.985 1.523 4.123 -1.837-3.993L74 89.249l-0.171-4.393 -1.838 3.993 1.522-4.123 -3.226 2.985 2.985-3.226 -4.124 1.523 3.992-1.839 -4.39-0.17 4.39-0.17 -3.992-1.839 4.124 1.523 -2.985-3.226 3.226 2.985 -1.522-4.123 1.838 3.993L74 78.749z" fill="#699507" stroke-width="none" opacity="1" stroke="none"/>
                    <path id="SvgjsPath6446" d="M74.796 80.067l-0.539 3.315 1.981-2.711 -1.766 2.857 2.87-1.748 -2.725 1.964 3.319-0.515L74.668 84l3.266 0.794 -3.317-0.538 2.712 1.982 -2.858-1.765 1.748 2.869 -1.964-2.725 0.516 3.319 -0.771-3.27 -0.795 3.264 0.539-3.315 -1.984 2.711 1.768-2.857 -2.869 1.748 2.725-1.964 -3.319 0.516 3.269-0.771 -3.264-0.793 3.315 0.537 -2.712-1.982 2.858 1.765 -1.747-2.869 1.964 2.725 -0.516-3.318 0.772 3.27L74.796 80.067z" fill="#5c8600" stroke-width="none" opacity="1" stroke="none"/>
                    <path id="SvgjsPath6447" d="M76.25 84c0 1.243-1.008 2.25-2.25 2.25s-2.25-1.007-2.25-2.25 1.008-2.25 2.25-2.25S76.25 82.757 76.25 84z" fill="#000000" stroke-width="none" opacity="0.9"/>
                    <path id="SvgjsPath6448" d="M71.637 88.311c-0.331 0.332-0.985 0.215-1.46-0.261 -0.476-0.475-0.593-1.129-0.261-1.461 0.331-0.331 0.985-0.214 1.46 0.261C71.852 87.326 71.969 87.979 71.637 88.311z" fill="#ffffff" stroke-width="none" opacity="0.7"/>
                    <path id="SvgjsPath6449" d="M78.806 82.818c-0.496 0.496-1.697 0.1-2.682-0.886 -0.986-0.986-1.382-2.187-0.886-2.683 0.496-0.496 1.697-0.1 2.682 0.886C78.906 81.122 79.302 82.322 78.806 82.818z" fill="#ffffff" stroke-width="none" opacity="0.9"/>
                  </g>
                </g>
              </g>
              <g id="svga-group-eyesfront-left">
                <path id="SvgjsPath6430" d="M56.198 84.999c0 13.807 8.507 25 19 25s19-11.193 19-25 -8.507-25-19-25S56.198 71.192 56.198 84.999zM61.8 84.999c0-7.18 5.82-13 13-13s13 5.82 13 13c0 7.18-5.82 13-13 13S61.8 92.179 61.8 84.999z" fill="#cda184" stroke-width="none" opacity="1" stroke="none"/>
                <path id="SvgjsPath6431" d="M61.8 84.999c0 7.18 5.82 13 13 13s13-5.82 13-13c0-7.18-5.82-13-13-13S61.8 77.819 61.8 84.999zM62.8 84.999c0-6.627 5.373-12 12-12s12 5.373 12 12c0 6.628-5.373 12-12 12S62.8 91.627 62.8 84.999z" fill="#1b1929" stroke-width="none" opacity="1" stroke="none"/>
              </g>
            </g>
          </g>
          <g id="svga-group-eyes-right-move" transform="matrix(1,0,0,1,0,0)">
            <g id="svga-group-eyes-right" transform="matrix(1,0,0,1,0,0)">
              <g id="svga-group-eyesback-right">
                <path id="SvgjsPath6413" d="M137.801 84.999c0 7.18-5.82 13-13 13s-13-5.82-13-13c0-7.18 5.82-13 13-13S137.801 77.819 137.801 84.999z" fill="url(#SvgjsRadialGradient6414)" opacity="1"/>
              </g>
              <g id="svga-group-eyesiriswrapper-right" transform="matrix(1,0,0,1,-1,1)">
                <g id="svga-group-eyesiriscontrol-right" transform="matrix(1,0,0,1,0,0)">
                  <g id="svga-group-eyesiris-right" transform="matrix(1,0,0,1,0,0)">
                    <path id="SvgjsPath6450" d="M132,83.999c0,3.316-2.684,6-6,6s-6-2.684-6-6s2.684-6,6-6S132,80.683,132,83.999z" fill="#8ab42d" stroke-width="none" opacity="1" stroke="none"/>
                    <path id="SvgjsPath6451" d="M122.508 86.806c0.879-0.076 0.105-0.305 0.105-0.305 -0.434-0.234-1.254-0.592-1.254-0.926 0-1.031 1.418-1.295-0.023-1.705 -1.512-1.377 1.16-1.348 1.137-1.395 -0.973-2.379 0.305-1.072 0.844-1.775 1.98-2.596 0.551 0.27 1.629 0 0.387-0.094-0.785-1.529 0.035-1.33 0.539 0.135 0.656 0.58 0.656 0.58 0.398-0.076 1.008-0.68 1.008-0.68 0.75 0.223 1.277 1.289 1.043 1.09 0.375-0.047 0.891-0.223 1.289-0.34 0 0 0.07-0.24 0.141-0.035 0.914 2.66 3.281 2.473 0.563 3.24 0 0-0.176 0 0.375 0.439 2.707 2.168-2.098 1.494 0.457 2.49 0.105-0.1-1.535 0.967-1.535 1.266 0 0.498-1.043 1.816-1.945 1.295 -0.504-0.287-0.586 0.604-0.879 0.193 -0.574-0.803-1.746-0.035-1.313-0.773 0.633-0.521-0.656 0.205-0.902 0.205 -0.832 0 1.078-2.783 3.891-0.715 0.82 0.598-0.867-1.436 0.633-1.436 0.141 0.047 0.105-0.521 0.105-0.68 -0.785-0.152 1.383-0.006 1.383-1.266 0.141 0.029 0.516-0.346-1.629 0 0 0-0.07-0.75-0.035-0.885 0.105-0.439 1.207-0.299 0.902-0.75l-0.797-1.605c-2.578-0.41-1.102-0.668-2.719-0.34 -0.07 0.381-3.445 1.986-3.34 2.73 0.105 0.703 2.121 0.938 0.211 2.18C125.402 91.054 120.434 85.452 122.508 86.806z" fill="#9cc344" stroke-width="none" opacity="1" stroke="none"/>
                    <path id="SvgjsPath6452" d="M126 78.749l0.176 4.395 1.828-3.996 -1.523 4.125 3.234-2.988 -2.988 3.229 4.125-1.523 -3.996 1.84 4.395 0.17 -4.395 0.17 3.996 1.84 -4.125-1.523 2.988 3.229 -3.234-2.988 1.523 4.125 -1.828-3.996L126 89.249l-0.176-4.395 -1.84 3.996 1.523-4.125 -3.223 2.988 2.988-3.229 -4.125 1.523 3.996-1.84 -4.395-0.17 4.395-0.17 -3.996-1.84 4.125 1.523 -2.988-3.229 3.223 2.988 -1.523-4.125 1.84 3.996L126 78.749z" fill="#699507" stroke-width="none" opacity="1" stroke="none"/>
                    <path id="SvgjsPath6453" d="M126.797 80.067l-0.539 3.316 1.98-2.713 -1.77 2.859 2.871-1.752 -2.719 1.969 3.316-0.516 -3.27 0.768 3.27 0.797 -3.316-0.539 2.707 1.98 -2.859-1.764 1.746 2.871 -1.957-2.725 0.516 3.316L126 84.667l-0.797 3.264 0.539-3.316 -1.98 2.713 1.77-2.859 -2.871 1.752 2.719-1.969 -3.316 0.516 3.27-0.768 -3.27-0.797 3.316 0.539 -2.707-1.98 2.859 1.764 -1.746-2.871 1.957 2.725 -0.516-3.316 0.773 3.27L126.797 80.067z" fill="#5c8600" stroke-width="none" opacity="1" stroke="none"/>
                    <path id="SvgjsPath6454" d="M128.25 83.999c0 1.242-1.008 2.25-2.25 2.25s-2.25-1.008-2.25-2.25 1.008-2.25 2.25-2.25S128.25 82.757 128.25 83.999z" fill="#000000" stroke-width="none" opacity="0.9"/>
                    <path id="SvgjsPath6455" d="M123.633 88.312c-0.328 0.328-0.984 0.217-1.453-0.264 -0.48-0.475-0.598-1.125-0.258-1.459 0.328-0.328 0.984-0.211 1.453 0.264C123.855 87.327 123.973 87.978 123.633 88.312z" fill="#ffffff" stroke-width="none" opacity="0.7"/>
                    <path id="SvgjsPath6456" d="M130.805 82.815c-0.492 0.498-1.699 0.105-2.684-0.885 -0.984-0.984-1.383-2.186-0.879-2.678 0.492-0.498 1.688-0.105 2.672 0.885C130.91 81.122 131.297 82.323 130.805 82.815z" fill="#ffffff" stroke-width="none" opacity="0.9"/>
                  </g>
                </g>
              </g>
              <g id="svga-group-eyesfront-right">
                <path id="SvgjsPath6441" d="M124.402 59.999c-10.493 0-19 11.193-19 25s8.507 25 19 25 19-11.193 19-25S134.896 59.999 124.402 59.999zM124.801 98c-7.18 0-13-5.82-13-13 0-7.18 5.82-13 13-13s13 5.82 13 13C137.801 92.179 131.98 98 124.801 98z" fill="#cda184" stroke-width="none" opacity="1" stroke="none"/>
                <path id="SvgjsPath6442" d="M124.801 71.999c-7.18 0-13 5.82-13 13 0 7.18 5.82 13 13 13s13-5.82 13-13C137.801 77.819 131.98 71.999 124.801 71.999zM124.801 96.999c-6.627 0-12-5.372-12-12 0-6.627 5.373-12 12-12s12 5.373 12 12C136.801 91.627 131.428 96.999 124.801 96.999z" fill="#1b1929" stroke-width="none" opacity="1" stroke="none"/>
              </g>
            </g>
          </g>
          <g id="svga-group-facehighlight-single">
            <path id="SvgjsPath6214" d="M141 113.974c0.035 22.622-18.292 40.994-40.938 41.025 -22.642 0.037-41.028-18.273-41.063-40.9 -0.035-22.62 18.292-41.064 40.937-41.1C122.579 72.964 140.967 91.349 141 113.974z" fill="url(#SvgjsRadialGradient6215)" opacity="1"/>
            <path id="SvgjsPath6218" d="M137.5 53.999c0 20.711-16.789 37.5-37.499 37.5 -20.711 0-37.501-16.789-37.501-37.5s16.79-37.5 37.501-37.5C120.711 16.499 137.5 33.288 137.5 53.999z" fill="url(#SvgjsRadialGradient6219)" opacity="1"/>
          </g>
          <g id="svga-group-eyebrows-left-move" transform="matrix(1,0,0,1,0,0)">
            <g id="svga-group-eyebrows-left-rotate" transform="matrix(1,0,0,1,0,0)">
              <g id="svga-group-eyebrows-left" transform="matrix(1,0,0,1,0,0)">
                <path id="SvgjsPath6457" d="M53.672 67.988c7.019 3.546 15.071 4.443 31.64 6.435 0.542 0.086 0.929 0.187 1.277 0.191 1.666-0.032 3.083-1.561 2.854-2.926C88.66 66.485 60.682 68.92 53.672 67.988z" fill="#b79675" stroke-width="none" opacity="1" stroke="none"/>
              </g>
            </g>
          </g>
          <g id="svga-group-eyebrows-right-move" transform="matrix(1,0,0,1,0,0)">
            <g id="svga-group-eyebrows-right-rotate" transform="matrix(1,0,0,1,0,0)">
              <g id="svga-group-eyebrows-right" transform="matrix(1,0,0,1,0,0)">
                <path id="SvgjsPath6458" d="M146.328 67.988c-7.019 3.546-15.071 4.443-31.64 6.435 -0.542 0.086-0.929 0.187-1.277 0.191 -1.666-0.032-3.084-1.561-2.854-2.926C111.34 66.485 139.317 68.92 146.328 67.988z" fill="#b79675" stroke-width="none" opacity="1" stroke="none"/>
              </g>
            </g>
          </g>
          <g id="svga-group-nose-single-move" transform="matrix(1,0,0,1,0,0)">
            <g id="svga-group-nose-single" transform="matrix(1,0,0,1,0,0)">
              <path id="SvgjsPath6470" d="M92.142 118.55c3.337-3.304 12.982-2.522 15.725-0.181C102.043 121.145 98.509 120.354 92.142 118.55z" fill="#c59575" stroke-width="none" opacity="1" stroke="none"/>
              <path id="SvgjsPath6471" d="M100.067 120.999c-1.354 0-2.731-0.479-3.924-0.945 -0.485-0.188-0.961-0.339-1.495-0.417 -0.667-0.099-1.898 0.078-2.391-0.322 -0.524-0.428-0.097-1.101 0.619-1.126 0.883 0.011 1.778 0.062 2.635 0.241 1.5 0.317 2.783 1.135 4.373 1.236 1.205 0.076 2.544-0.524 3.622-0.883 0.847-0.282 3.679-1.335 4.362-0.414 0.423 0.568-0.255 0.973-0.905 1.002 -0.805 0.035-1.598 0.251-2.342 0.483C103.183 120.304 101.65 120.999 100.067 120.999z" fill="#9f6037" stroke-width="none" opacity="1" stroke="none"/>
              <path id="SvgjsPath6472" d="M99.985 116.39c0.637 0 2.125-0.742 1.881-2.181 -1.445-8.496-1.881-23.21-1.881-23.21s-1.105 17.234-2.049 23.21C97.707 115.664 99.265 116.39 99.985 116.39z" fill="#ecd5c7" stroke-width="none" opacity="0.2" stroke="none"/>
            </g>
          </g>
          <g id="svga-group-beardwrap" transform="matrix(1,0,0,1,0,0)">
            <g id="svga-group-beard-single-move" transform="matrix(1,0,0,1,0,0)">
              <g id="svga-group-beard-single" transform="matrix(1,0,0,1,0,0)">
                <path id="SvgjsPath6388" d="M121.7 143.02c-0.18-4.31-0.38-8.63-0.42-12.95 -0.03-4.47-4.23-6.63-6.6-7.22 -2.05-0.51-7.31-0.64-9.42-0.81 -4.88-0.39-4.15 5.16-0.99 5.71 8.67 1.53 12.02 0.82 12.53 4.76 0.59 4.6 2.87 9.63-2.36 13.41 -2.18 1.57-11.81 1.72-12.81 1.78 -0.58-0.38 0.05-3.58 0.18-4.22 0.23-1.14 2.3-2.27 2.55-3.99 -0.76 0.28-4.02 0.6-4.37 0.6 -0.34-0.01-3.61-0.33-4.37-0.6 0.25 1.72 2.33 2.85 2.55 3.99 0.13 0.64 0.81 3.84 0.18 4.22 -1-0.06-10.64-0.21-12.81-1.78 -5.24-3.78-2.95-8.81-2.36-13.41 0.51-3.94 3.86-3.23 12.53-4.76 3.16-0.55 3.9-6.1-0.99-5.71 -2.11 0.17-7.37 0.29-9.42 0.81 -2.37 0.59-6.57 2.75-6.6 7.22 -0.03 4.32-0.24 8.63-0.42 12.95 -0.3 7.26 4.13 12.4 11.61 12.75 3.36 0.15 6.73 0.23 10.09 0.23s6.74-0.08 10.09-0.23C117.57 155.42 122 150.29 121.7 143.02z" fill="#b79675" stroke-width="none" opacity="1" stroke="none"/>
              </g>
            </g>
          </g>
          <g id="svga-group-mustache-single-move" transform="matrix(1,0,0,1,0,0)">
            <g id="svga-group-mustache-single" transform="matrix(1,0,0,1,0,0)">
              <path id="SvgjsPath6230" d="M100,18.13L100,18.13L100,18.13L100,18.13z" fill="#2a232b" stroke-width="none" opacity="1"/>
            </g>
          </g>
          <g id="svga-group-hair-front" transform="matrix(1,0,0,1,0,0)">
            <path id="SvgjsPath6383" d="M49.154 100.989C41.04 86.852 35.757 72.474 32.071 54.535c-3.5-17.697 8.226-36.577 20.601-46.629C67.818-4.442 92.105-9.52 105.745-9.52c7.418 0 18.449 2.012 24.415 3.877 7.057 2.059 15.913 7.557 20.008 15.023 2.753-1.839 4.011-2.934 6.237-5.747 -1.313 3.125-1.996 4.076-5.692 8.969 2.123-0.538 4.48-0.844 7.924-2.589 -3.487 3.242-3.551 3.677-5.566 5.744 4.989 1.96 9.135 6.575 11.729 10.739 9.042 14.558-0.657 41.766-5.318 54.841 -5.015 14.046-1.861 6.874-6.486 16.838 -7.409-16.445-9.127-25.471-10.057-30.354 -2.46-12.795-5.433-17.035-4.421-28.938 -18.036 11.75-48.595 17.209-62.768 17.209 -7.201 0-11.792-1.1-16.393-2.147 -9.306 27.486-4.284 21.064-8.418 38.616C50.498 94.432 49.958 96.725 49.154 100.989z" fill="#b79675" stroke-width="none" opacity="1" stroke="none"/>
            <path id="SvgjsPath6384" d="M159.48 81.338c-5.015 14.046-1.861 6.874-6.486 16.838 -7.409-16.445-9.127-25.471-10.057-30.354 -1.871-9.732-4.033-14.521-4.52-21.49C146.461 63.629 148.82 67.361 152 84c-0.537-10.842 4.329-20.013 3.14-33.375 2.473 7.109 0.744 19.037 1.926 25.374 2.197-17 11.835-28.889 3.675-54.776 1.593 1.683 2.965 3.517 4.059 5.273C173.841 41.054 164.142 68.262 159.48 81.338zM45.041 57.624C42.038 67.361 44 75 44 82c-5.642-15.313-10.507-26.644-9.879-48.268 -2.443 6.712-3.426 13.848-2.05 20.802 3.687 17.939 8.969 32.317 17.083 46.455 0.804-4.264 1.344-6.558 1.784-8.428 4.022-17.078 0.101-13.616 8.418-38.616C52.858 64.136 49.459 75 48.499 85.999 48.528 77.259 44.466 69.543 45.041 57.624zM145.521 25.877c-1.89 15.953-1.267 16.889 0.128 23.438 0.212 0.888 0.376 1.469 0.377 1.469 1.989 7.238 2.726 8.845 3.206 14.878C149.703 46.899 144.425 58.765 145.521 25.877zM157.891 55.356c0.073-13.8 0.261-25.658-6.185-33.808C159.559 29.782 159.259 44.061 157.891 55.356zM151.088 49.996c-0.504-10.126 2.531-24.609-4.535-30.715C154.616 25.063 151.705 40.792 151.088 49.996zM41.007 69.58c-2.188-6.914-1.09-10.268-1.031-18.759C40.674 58.797 39.294 61.735 41.007 69.58zM48.459 77.413c-0.411-6.977 0.67-17.285 6.154-21.645C50.083 60.093 48.898 68.918 48.459 77.413zM120.869-3.265c8.801-1.031 26.102 10.208 27 19.333C146.272 7.702 128.673-3.535 120.869-3.265zM97.203 0.735c13.247-4.339 30.327 3.968 30.327 3.968 5.783 2.646 11.377 6.957 13.34 13.032 -2.42-5.801-7.938-9.339-13.813-12.024C127.057 5.711 109.873-2.221 97.203 0.735zM38.869 37.402c4.04-11.192 11.108-22.028 22-28C51.029 15.858 43.705 26.812 38.869 37.402zM64.203 19.069c8.703-12.302 33.537-17.684 48-13.667C98.704 2.828 73.49 8.104 64.203 19.069zM134.619 33.985c-26.546 15.834-51.703 17.264-82.75 11.75C82.966 48.817 107.52 47.559 134.619 33.985zM79.869 37.735c20.661-0.885 30.552-1.047 46-8C111.563 37.651 99.996 38.712 79.869 37.735zM49.869 41.735c16.223-13.189 32.838-14.953 60-18C82.451 29.105 67.577 29.656 49.869 41.735zM103.869 12.735c2.269-0.251 6.484-0.926 14.006-0.081 0 0 12.716 1.115 19.095 8.958 0.559 0.698 0.899 1.123 0.899 1.123C129.521 13.966 116.049 12.457 103.869 12.735z" fill="#a8815a" stroke-width="none" opacity="1" stroke="none"/>
            <path id="SvgjsPath6385" d="M61.841 7.462c25.283-15.239 49.736-19.184 74.028-2.394C111.12-9.22 88.093-5.349 61.841 7.462zM151.202 17.402c10.816 13.112 11.747 30.038 6.667 46C165.752 45.119 161.784 28.208 151.202 17.402zM44.534 22.551c-5.779 6.816-8.426 11.286-9.649 20.271 -0.534 9.549 1.299 16.205 4.768 26.548C34.845 48.605 32.631 39.359 44.534 22.551z" fill="#c6ac93" stroke-width="none" opacity="1" stroke="none"/>
            <path id="SvgjsPath6386" d="M165.139 26.285c-2.537-4.073-7.433-8.843-11.859-10.58 2.086-2.138 3.192-3.127 7.91-7.52 -2.367 1.29-4.958 2.856-9.67 4.05 4.25-5.623 4.339-6.192 6.359-11.15 -2.641 3.395-4.018 5.412-7.77 7.92 -4.119-7.511-13.391-13.151-19.83-15.03 -5.879-1.837-17.485-4.013-25.17-3.89 -13.995 0.112-37.791 5.363-52.69 17.51 -11.061 8.984-24.482 28.094-20.74 47.02 3.401 16.551 8.392 31.602 17.67 47.51 2.605-14.126 2.609-8.458 4.62-27.54 0.412-4.89 4.173-15.797 5.65-20.17 8.703 1.981 18.616 4.319 46.61-2.29 10.261-2.374 22.654-6.484 31.819-12.46 -0.873 10.335 1.949 15.81 4.271 27.06 0.891 4.487 2.267 13.943 10.67 32.41 5.618-12.105 1.914-3.98 5.89-14.9C162.791 72.991 175.003 42.167 165.139 26.285zM160.919 70.976c-7.884 24.153-4.516 16.809-8.09 25.74 -0.696-1.823-5.499-15.777-7.37-23.55 -5.207-23.993-5.769-22.234-6.229-29.04 -0.608-10.554 1.64-16.228 2.27-18.75 -2.706 7.294-3.39 12.414-3.39 13.54 -12.465 7.624-40.495 13.263-54.65 14.74 -14.557 1.521-32.529-1.898-45.52-6.56 6.718 3.623 17.987 6.342 20.93 7.14 -1.758 4.375-5.733 14.022-6.29 20.16 -1.704 16.68-3.133 19.904-3.75 25.66 -9.817-18.234-15.205-43.456-15.69-49.61 -1.82-11.616 8.195-30.908 20.73-41.06C68.92-3.005 93.752-7.681 105.049-7.985c6.584-0.383 18.69 1.435 24.79 3.13 6.272 1.554 16.384 7.239 20.271 14.59 0 0 0 0.01 0.01 0.01 2.345-1.555 2.967-1.997 4.92-3.95 0 0.01 0 0.02-0.01 0.03 -1.053 1.94-3.255 4.893-4.601 6.89 2.66-0.462 5.147-1.105 7.54-2.24 -3.76 3.525-3.145 3.008-5.3 5.41 3.441 1.37 12.215 8.283 13.58 18.97C167.792 48.867 163.971 61.387 160.919 70.976z" fill="#895c2f" stroke-width="none" opacity="1" stroke="none"/>
          </g>
          <g id="svga-group-glasses-single-move" transform="matrix(1,0,0,1,0,0)">
            <g id="svga-group-glasses-single" transform="matrix(1,0,0,1,0,0)">
              <path id="SvgjsPath6459" d="M124.34 99.99c-0.82 0-1.66-0.03-2.49-0.1 -3.5-0.26-15.01-2.23-16.05-16.5 -0.26-3.57 7.6-6.09 23.34-7.49 0.79-0.07 1.61-0.15 2.46-0.23 3.85-0.36 8.21-0.77 11.65-0.77 4.5 0 6.58 0.68 6.73 2.22 0.36 3.45-1.67 10.82-8.72 17C136.96 97.91 130.95 99.99 124.34 99.99z" fill="url(#SvgjsLinearGradient6460)" opacity="1"/>
              <path id="SvgjsPath6463" d="M75.66 99.99c0.82 0 1.66-0.03 2.49-0.1 3.5-0.26 15.01-2.23 16.05-16.5 0.26-3.57-7.6-6.09-23.34-7.49 -0.79-0.07-1.61-0.15-2.46-0.23 -3.85-0.36-8.21-0.77-11.65-0.77 -4.5 0-6.58 0.68-6.73 2.22 -0.36 3.45 1.67 10.82 8.72 17C63.04 97.91 69.05 99.99 75.66 99.99z" fill="url(#SvgjsLinearGradient6464)" opacity="1"/>
              <path id="SvgjsPath6467" d="M147.99 73.03c-5.98 0.68-19.67 1.5-27.04 2.16 -4.68 0.41-12.81 2.65-20.95 2.65 -8.14 0-16.27-2.23-20.95-2.65 -7.37-0.65-21.06-1.48-27.04-2.16 -2.7-0.31-6.42 0.95-5.97 3.51 0.34 1.91 3.15 10.2 11.86 18.2 5.94 5.45 15.9 8.17 26.2 5.12 9.68-2.87 11.7-11.13 12.66-13.23 0.85-1.85 1.76-2.67 3.24-2.67s2.4 0.82 3.24 2.67c0.96 2.09 2.98 10.36 12.66 13.23 10.3 3.05 20.26 0.33 26.2-5.12 8.71-8 11.52-16.29 11.86-18.2C154.41 73.98 150.69 72.72 147.99 73.03zM78.11 99.4c-7.54 0.57-14.31-1.48-19.05-5.64 -6.87-6.03-8.9-13.22-8.56-16.58 0.3-2.93 12.22-1.5 20.3-0.78 8.08 0.72 23.21 2.55 22.89 6.96C92.83 95.34 84.45 98.92 78.11 99.4zM140.94 93.76c-4.74 4.16-11.51 6.21-19.05 5.64 -6.34-0.48-14.72-4.05-15.59-16.04 -0.32-4.41 14.81-6.24 22.89-6.96 8.08-0.72 20-2.15 20.3 0.78C149.84 80.53 147.81 87.73 140.94 93.76z" fill="#153a4d" stroke-width="none" opacity="1" stroke="none"/>
              <path id="SvgjsPath6468" d="M73.61 99.42c-16.31-0.67-21.96-14.11-23.63-18 -1.6-3.73-0.3-5.07 1.95-5.88 -0.89 0.62-1.62 1.23-1.64 2.61C50.1 84.21 58.21 98.57 73.61 99.42zM93.58 87.22c0.94-2.29 1.76-3.96 1.3-5.25 -0.74-2.1-5.84-2.97-7.71-3.36C93.62 80.48 95.43 81.06 93.58 87.22zM82.14 77.14c-4.22-1.31-16.69-2.69-20.76-2.42C65.7 75.13 77.56 76.01 82.14 77.14zM126.39 99.42c16.31-0.67 21.96-14.11 23.63-18 1.6-3.73 0.3-5.07-1.94-5.88 0.89 0.62 1.62 1.23 1.64 2.61C149.9 84.21 141.79 98.57 126.39 99.42zM112.83 78.6c-1.87 0.39-6.97 1.26-7.71 3.36 -0.45 1.29 0.37 2.96 1.3 5.25C104.57 81.06 106.38 80.48 112.83 78.6zM138.62 74.73c-4.07-0.27-16.54 1.11-20.76 2.42C122.44 76.01 134.3 75.13 138.62 74.73z" fill="#22495c" stroke-width="none" opacity="1" stroke="none"/>
            </g>
          </g>
        </g>
      </g>
    </g>
    <rect id="SvgjsRect6199" width="200" height="15" x="0" y="185" fill="#ecf0f1" opacity="0.5" style="display: none;"/>
    <text id="SvgjsText6200" font-family="Roboto, Helvetica, Arial, sans-serif" font-size="10px" text-anchor="start" font-weight="400" anchor="start" fill="#333333" x="38.771217346191406" y="182.42838287353516" style="display: none;">
      <tspan id="SvgjsTspan6201" dy="13" x="38.771217346191406">Created on svgAvatars.com</tspan>
    </text>
  </g>
</svg>
